<svg width="121" height="70" viewBox="0 0 121 70" fill="none" xmlns="http://www.w3.org/2000/svg">
<path d="M92.9923 69.207H92.2515V70H92.9923V69.207Z" fill="#545555"/>
<path d="M73.8747 15.6086L57.2359 0.067627H47.8734L4.11206 41.1694H19.125L52.6227 9.71541L73.8787 29.5672L89.7846 14.7479V41.1731H100.381V0.067627H89.7846L73.8747 15.6086Z" fill="#9B83FC"/>
<path d="M30.3978 10.7306L18.9969 0.0267029H4L22.8973 17.7663L30.3978 10.7306Z" fill="#604337"/>
<path d="M62.8743 41.1544L44.0891 23.5613L36.5767 30.6083L47.8253 41.1544H62.8743Z" fill="#604337"/>
<path d="M102.863 0.856914H104.649V5.27678H105.646V0.856914H107.428V0H102.863V0.856914Z" fill="#604337"/>
<path d="M112.951 0L111.237 2.49557L109.527 0H108.474V5.27678H109.447V1.50711L111.205 3.98013H111.237L113.015 1.49208V5.27678H114V0H112.951Z" fill="#604337"/>
<g filter="url(#filter0_d_166_785)">
<path d="M9.74648 53.7036L12.902 49.374H10.5434L8.54512 52.2491L6.56289 49.374H4.13615L7.29171 53.7299L4 58.2362H6.35866L8.49307 55.1995L10.6115 58.2362H13.0382L9.74648 53.7036Z" fill="#9B83FC"/>
</g>
<g filter="url(#filter1_d_166_785)">
<path d="M17.3311 54.0982C15.6171 54.0982 14.4158 54.7823 14.4158 56.2631C14.4158 57.6311 15.537 58.364 16.8986 58.364C17.8957 58.364 18.5845 58.022 19.085 57.5033V58.2362H21.0673V54.2974C21.0673 53.3842 20.823 52.64 20.2864 52.1326C19.7738 51.6515 18.9649 51.3734 17.8436 51.3734C16.6142 51.3734 15.8334 51.5876 15.0365 51.9184L15.549 53.3879C16.2098 53.1586 16.7624 53.0196 17.5473 53.0196C18.5725 53.0196 19.097 53.4631 19.097 54.2599V54.3726C18.5845 54.211 18.0599 54.0982 17.3311 54.0982ZM19.1251 55.5039V55.8459C19.1251 56.5412 18.4763 57.0373 17.5193 57.0373C16.8585 57.0373 16.398 56.7329 16.398 56.2142C16.398 55.5791 16.9386 55.2521 17.8156 55.2521C18.3162 55.2521 18.7727 55.3535 19.1251 55.5039Z" fill="#9B83FC"/>
</g>
<g filter="url(#filter2_d_166_785)">
<path d="M27.6108 51.3245C26.5456 51.3245 25.8568 51.7943 25.3562 52.4257V51.4523H23.3059V60.2657H25.3562V57.353C25.8408 57.8979 26.5175 58.364 27.6108 58.364C29.3247 58.364 30.9025 57.1237 30.9025 54.8574C30.9025 52.5648 29.2967 51.3245 27.6108 51.3245ZM27.0862 56.7328C26.1291 56.7328 25.3322 55.9849 25.3322 54.8612C25.3322 53.7073 26.1291 52.9632 27.0862 52.9632C28.0432 52.9632 28.8522 53.7111 28.8522 54.8349C28.8522 55.9962 28.0432 56.7328 27.0862 56.7328Z" fill="#9B83FC"/>
</g>
<g filter="url(#filter3_d_166_785)">
<path d="M37.2333 54.2373L39.8883 51.4524H37.5297L34.9387 54.2373V51.4524H32.8884V58.2363H34.9387V56.6051L35.8718 55.6542L37.798 58.2363H40.2287L37.2333 54.2373Z" fill="#9B83FC"/>
</g>
<g filter="url(#filter4_d_166_785)">
<path d="M43.8049 48.9944H41.6465V50.7044H43.8049V48.9944Z" fill="#9B83FC"/>
</g>
<g filter="url(#filter5_d_166_785)">
<path d="M43.7488 51.4524H41.6985V58.24H43.7488V51.4524Z" fill="#9B83FC"/>
</g>
<g filter="url(#filter6_d_166_785)">
<path d="M51.3853 54.6808C52.006 54.429 52.5306 53.9705 52.5306 53.1474C52.5306 52.0838 51.5735 51.4524 50.1158 51.4524H46.1514V58.24H50.1038C51.7777 58.24 52.8029 57.5447 52.8029 56.3909C52.8029 55.44 52.2623 54.9326 51.3853 54.6808ZM48.1777 52.8693H49.6473C50.24 52.8693 50.4842 53.1587 50.4842 53.4894C50.4842 53.884 50.1999 54.1734 49.6193 54.1734H48.1777V52.8693ZM49.7955 56.7329H48.1777V55.3912H49.7434C50.4442 55.3912 50.7285 55.6843 50.7285 56.0489C50.7245 56.451 50.4282 56.7329 49.7955 56.7329Z" fill="#9B83FC"/>
</g>
<path d="M67.7256 51.1074V58.75H65.7773V54.9971C65.7773 54.6279 65.7842 54.2656 65.7979 53.9102C65.8115 53.5547 65.832 53.2266 65.8594 52.9258H65.8184L63.7061 58.75H62.1406L59.9941 52.9121H59.9395C59.9759 53.2174 60.001 53.5456 60.0146 53.8965C60.0283 54.2474 60.0352 54.6325 60.0352 55.0518V58.75H58.0938V51.1074H61.0469L62.9473 56.2891L64.8818 51.1074H67.7256ZM73.0508 50.9502C74.0762 50.9502 74.8623 51.1735 75.4092 51.6201C75.9561 52.0667 76.2295 52.7458 76.2295 53.6572V58.75H74.7734L74.3701 57.7109H74.3154C74.0967 57.9844 73.8734 58.2077 73.6455 58.3809C73.4176 58.554 73.1556 58.6816 72.8594 58.7637C72.5632 58.8457 72.2031 58.8867 71.7793 58.8867C71.3281 58.8867 70.9225 58.8001 70.5625 58.627C70.207 58.4538 69.9268 58.1895 69.7217 57.834C69.5166 57.474 69.4141 57.0182 69.4141 56.4668C69.4141 55.6556 69.6989 55.0586 70.2686 54.6758C70.8382 54.2884 71.6927 54.0742 72.832 54.0332L74.1582 53.9922V53.6572C74.1582 53.2562 74.0534 52.9622 73.8438 52.7754C73.6341 52.5885 73.3424 52.4951 72.9688 52.4951C72.5996 52.4951 72.2373 52.5475 71.8818 52.6523C71.5264 52.7572 71.1709 52.8893 70.8154 53.0488L70.125 51.6406C70.5306 51.4264 70.984 51.2578 71.4854 51.1348C71.9912 51.0117 72.513 50.9502 73.0508 50.9502ZM74.1582 55.209L73.3516 55.2363C72.6771 55.2546 72.2077 55.3753 71.9434 55.5986C71.6836 55.8219 71.5537 56.1159 71.5537 56.4805C71.5537 56.7995 71.6471 57.0273 71.834 57.1641C72.0208 57.2962 72.2646 57.3623 72.5654 57.3623C73.012 57.3623 73.388 57.2301 73.6934 56.9658C74.0033 56.7015 74.1582 56.3255 74.1582 55.8379V55.209ZM83.6602 51.1074V52.6729H80.4678V58.75H78.3828V51.1074H83.6602ZM88.2129 50.9502C89.2383 50.9502 90.0244 51.1735 90.5713 51.6201C91.1182 52.0667 91.3916 52.7458 91.3916 53.6572V58.75H89.9355L89.5322 57.7109H89.4775C89.2588 57.9844 89.0355 58.2077 88.8076 58.3809C88.5798 58.554 88.3177 58.6816 88.0215 58.7637C87.7253 58.8457 87.3652 58.8867 86.9414 58.8867C86.4902 58.8867 86.0846 58.8001 85.7246 58.627C85.3691 58.4538 85.0889 58.1895 84.8838 57.834C84.6787 57.474 84.5762 57.0182 84.5762 56.4668C84.5762 55.6556 84.861 55.0586 85.4307 54.6758C86.0003 54.2884 86.8548 54.0742 87.9941 54.0332L89.3203 53.9922V53.6572C89.3203 53.2562 89.2155 52.9622 89.0059 52.7754C88.7962 52.5885 88.5046 52.4951 88.1309 52.4951C87.7617 52.4951 87.3994 52.5475 87.0439 52.6523C86.6885 52.7572 86.333 52.8893 85.9775 53.0488L85.2871 51.6406C85.6927 51.4264 86.1462 51.2578 86.6475 51.1348C87.1533 51.0117 87.6751 50.9502 88.2129 50.9502ZM89.3203 55.209L88.5137 55.2363C87.8392 55.2546 87.3698 55.3753 87.1055 55.5986C86.8457 55.8219 86.7158 56.1159 86.7158 56.4805C86.7158 56.7995 86.8092 57.0273 86.9961 57.1641C87.1829 57.2962 87.4268 57.3623 87.7275 57.3623C88.1742 57.3623 88.5501 57.2301 88.8555 56.9658C89.1654 56.7015 89.3203 56.3255 89.3203 55.8379V55.209ZM96.3271 50.9639C96.8786 50.9639 97.3936 51.0368 97.8721 51.1826C98.3506 51.3239 98.738 51.5449 99.0342 51.8457C99.3304 52.1419 99.4785 52.5247 99.4785 52.9941C99.4785 53.4544 99.3395 53.8213 99.0615 54.0947C98.7835 54.3636 98.4144 54.5573 97.9541 54.6758V54.7441C98.2777 54.8216 98.5693 54.9264 98.8291 55.0586C99.0934 55.1908 99.3031 55.373 99.458 55.6055C99.613 55.8379 99.6904 56.1432 99.6904 56.5215C99.6904 56.9453 99.556 57.3372 99.2871 57.6973C99.0182 58.0527 98.6058 58.3398 98.0498 58.5586C97.4984 58.7773 96.7897 58.8867 95.9238 58.8867C95.5137 58.8867 95.1263 58.8685 94.7617 58.832C94.4017 58.7956 94.0713 58.7432 93.7705 58.6748C93.4697 58.6019 93.2077 58.5153 92.9844 58.415V56.6924C93.2988 56.8382 93.6862 56.9727 94.1465 57.0957C94.6113 57.2188 95.1058 57.2803 95.6299 57.2803C96.0081 57.2803 96.3499 57.2529 96.6553 57.1982C96.9652 57.1436 97.209 57.0524 97.3867 56.9248C97.569 56.7926 97.6602 56.6172 97.6602 56.3984C97.6602 56.1934 97.5804 56.0247 97.4209 55.8926C97.266 55.7559 97.0267 55.6556 96.7031 55.5918C96.3841 55.5234 95.9785 55.4893 95.4863 55.4893H94.6797V54.0469H95.4453C96.138 54.0469 96.6735 53.9899 97.0518 53.876C97.43 53.762 97.6191 53.5524 97.6191 53.2471C97.6191 53.001 97.4984 52.8164 97.2568 52.6934C97.0153 52.5703 96.6165 52.5088 96.0605 52.5088C95.7005 52.5088 95.304 52.5521 94.8711 52.6387C94.4382 52.7207 94.0326 52.8392 93.6543 52.9941L93.0391 51.5381C93.4811 51.3695 93.9596 51.2327 94.4746 51.1279C94.9941 51.0186 95.6117 50.9639 96.3271 50.9639ZM103.341 51.1074V54.1289C103.341 54.2839 103.334 54.4798 103.32 54.7168C103.311 54.9492 103.298 55.1862 103.279 55.4277C103.261 55.6693 103.243 55.8857 103.225 56.0771C103.206 56.2686 103.193 56.3984 103.184 56.4668L106.711 51.1074H109.22V58.75H107.203V55.7012C107.203 55.4505 107.212 55.1748 107.23 54.874C107.249 54.5687 107.269 54.2816 107.292 54.0127C107.315 53.7438 107.331 53.541 107.34 53.4043L103.826 58.75H101.324V51.1074H103.341ZM113.499 51.1074V54.0469H116.411V51.1074H118.496V58.75H116.411V55.5986H113.499V58.75H111.414V51.1074H113.499Z" fill="#9B83FC"/>
<defs>
<filter id="filter0_d_166_785" x="0" y="49.374" width="17.0381" height="16.8623" filterUnits="userSpaceOnUse" color-interpolation-filters="sRGB">
<feFlood flood-opacity="0" result="BackgroundImageFix"/>
<feColorMatrix in="SourceAlpha" type="matrix" values="0 0 0 0 0 0 0 0 0 0 0 0 0 0 0 0 0 0 127 0" result="hardAlpha"/>
<feOffset dy="4"/>
<feGaussianBlur stdDeviation="2"/>
<feComposite in2="hardAlpha" operator="out"/>
<feColorMatrix type="matrix" values="0 0 0 0 0 0 0 0 0 0 0 0 0 0 0 0 0 0 0.25 0"/>
<feBlend mode="normal" in2="BackgroundImageFix" result="effect1_dropShadow_166_785"/>
<feBlend mode="normal" in="SourceGraphic" in2="effect1_dropShadow_166_785" result="shape"/>
</filter>
<filter id="filter1_d_166_785" x="10.4158" y="51.3734" width="14.6516" height="14.9906" filterUnits="userSpaceOnUse" color-interpolation-filters="sRGB">
<feFlood flood-opacity="0" result="BackgroundImageFix"/>
<feColorMatrix in="SourceAlpha" type="matrix" values="0 0 0 0 0 0 0 0 0 0 0 0 0 0 0 0 0 0 127 0" result="hardAlpha"/>
<feOffset dy="4"/>
<feGaussianBlur stdDeviation="2"/>
<feComposite in2="hardAlpha" operator="out"/>
<feColorMatrix type="matrix" values="0 0 0 0 0 0 0 0 0 0 0 0 0 0 0 0 0 0 0.25 0"/>
<feBlend mode="normal" in2="BackgroundImageFix" result="effect1_dropShadow_166_785"/>
<feBlend mode="normal" in="SourceGraphic" in2="effect1_dropShadow_166_785" result="shape"/>
</filter>
<filter id="filter2_d_166_785" x="19.3059" y="51.3245" width="15.5967" height="16.9412" filterUnits="userSpaceOnUse" color-interpolation-filters="sRGB">
<feFlood flood-opacity="0" result="BackgroundImageFix"/>
<feColorMatrix in="SourceAlpha" type="matrix" values="0 0 0 0 0 0 0 0 0 0 0 0 0 0 0 0 0 0 127 0" result="hardAlpha"/>
<feOffset dy="4"/>
<feGaussianBlur stdDeviation="2"/>
<feComposite in2="hardAlpha" operator="out"/>
<feColorMatrix type="matrix" values="0 0 0 0 0 0 0 0 0 0 0 0 0 0 0 0 0 0 0.25 0"/>
<feBlend mode="normal" in2="BackgroundImageFix" result="effect1_dropShadow_166_785"/>
<feBlend mode="normal" in="SourceGraphic" in2="effect1_dropShadow_166_785" result="shape"/>
</filter>
<filter id="filter3_d_166_785" x="28.8884" y="51.4524" width="15.3403" height="14.7839" filterUnits="userSpaceOnUse" color-interpolation-filters="sRGB">
<feFlood flood-opacity="0" result="BackgroundImageFix"/>
<feColorMatrix in="SourceAlpha" type="matrix" values="0 0 0 0 0 0 0 0 0 0 0 0 0 0 0 0 0 0 127 0" result="hardAlpha"/>
<feOffset dy="4"/>
<feGaussianBlur stdDeviation="2"/>
<feComposite in2="hardAlpha" operator="out"/>
<feColorMatrix type="matrix" values="0 0 0 0 0 0 0 0 0 0 0 0 0 0 0 0 0 0 0.25 0"/>
<feBlend mode="normal" in2="BackgroundImageFix" result="effect1_dropShadow_166_785"/>
<feBlend mode="normal" in="SourceGraphic" in2="effect1_dropShadow_166_785" result="shape"/>
</filter>
<filter id="filter4_d_166_785" x="37.6465" y="48.9944" width="10.1584" height="9.71005" filterUnits="userSpaceOnUse" color-interpolation-filters="sRGB">
<feFlood flood-opacity="0" result="BackgroundImageFix"/>
<feColorMatrix in="SourceAlpha" type="matrix" values="0 0 0 0 0 0 0 0 0 0 0 0 0 0 0 0 0 0 127 0" result="hardAlpha"/>
<feOffset dy="4"/>
<feGaussianBlur stdDeviation="2"/>
<feComposite in2="hardAlpha" operator="out"/>
<feColorMatrix type="matrix" values="0 0 0 0 0 0 0 0 0 0 0 0 0 0 0 0 0 0 0.25 0"/>
<feBlend mode="normal" in2="BackgroundImageFix" result="effect1_dropShadow_166_785"/>
<feBlend mode="normal" in="SourceGraphic" in2="effect1_dropShadow_166_785" result="shape"/>
</filter>
<filter id="filter5_d_166_785" x="37.6985" y="51.4524" width="10.0503" height="14.7877" filterUnits="userSpaceOnUse" color-interpolation-filters="sRGB">
<feFlood flood-opacity="0" result="BackgroundImageFix"/>
<feColorMatrix in="SourceAlpha" type="matrix" values="0 0 0 0 0 0 0 0 0 0 0 0 0 0 0 0 0 0 127 0" result="hardAlpha"/>
<feOffset dy="4"/>
<feGaussianBlur stdDeviation="2"/>
<feComposite in2="hardAlpha" operator="out"/>
<feColorMatrix type="matrix" values="0 0 0 0 0 0 0 0 0 0 0 0 0 0 0 0 0 0 0.25 0"/>
<feBlend mode="normal" in2="BackgroundImageFix" result="effect1_dropShadow_166_785"/>
<feBlend mode="normal" in="SourceGraphic" in2="effect1_dropShadow_166_785" result="shape"/>
</filter>
<filter id="filter6_d_166_785" x="42.1514" y="51.4524" width="14.6516" height="14.7877" filterUnits="userSpaceOnUse" color-interpolation-filters="sRGB">
<feFlood flood-opacity="0" result="BackgroundImageFix"/>
<feColorMatrix in="SourceAlpha" type="matrix" values="0 0 0 0 0 0 0 0 0 0 0 0 0 0 0 0 0 0 127 0" result="hardAlpha"/>
<feOffset dy="4"/>
<feGaussianBlur stdDeviation="2"/>
<feComposite in2="hardAlpha" operator="out"/>
<feColorMatrix type="matrix" values="0 0 0 0 0 0 0 0 0 0 0 0 0 0 0 0 0 0 0.25 0"/>
<feBlend mode="normal" in2="BackgroundImageFix" result="effect1_dropShadow_166_785"/>
<feBlend mode="normal" in="SourceGraphic" in2="effect1_dropShadow_166_785" result="shape"/>
</filter>
</defs>
</svg>
