<svg width="129" height="87" viewBox="0 0 129 87" fill="none" xmlns="http://www.w3.org/2000/svg">
<path d="M16.6006 80.0266H15.7315L13.1467 82.7524V80.0266H12.4414V84.7501H13.1467V83.6079L14.1433 82.584L15.8225 84.7501H16.6552L14.6257 82.0744L16.6006 80.0266Z" fill="#545555"/>
<path d="M19.645 83.9674L17.9249 80.0266H17.1467L19.2946 84.7319C19.0125 85.4009 18.744 85.6193 18.3253 85.6193C18.025 85.6193 17.8157 85.5647 17.5836 85.4464L17.347 86.0061C17.6655 86.1608 17.9613 86.2427 18.3526 86.2427C19.0671 86.2427 19.5221 85.8878 19.9226 84.9094L21.9066 80.0266H21.1603L19.645 83.9674Z" fill="#545555"/>
<path d="M23.0259 84.7501H23.7312V80.65H26.4161V84.7501H27.1214V80.0266H23.0259V84.7501Z" fill="#545555"/>
<path d="M30.7119 83.9674L28.9918 80.0266H28.2136L30.3615 84.7319C30.0794 85.4009 29.8109 85.6193 29.3922 85.6193C29.0919 85.6193 28.8826 85.5647 28.6505 85.4464L28.4138 86.0061C28.7324 86.1608 29.0282 86.2427 29.4195 86.2427C30.134 86.2427 30.589 85.8878 30.9895 84.9094L32.9735 80.0266H32.2227L30.7119 83.9674Z" fill="#545555"/>
<path d="M34.7984 83.7672V80.0266H34.093V84.7501H34.7711L37.5833 81.0141V84.7501H38.2887V80.0266H37.6015L34.7984 83.7672Z" fill="#545555"/>
<path d="M37.456 78.2336L36.9736 78.1335C36.8644 78.5249 36.6187 78.7751 36.1682 78.7751C35.7222 78.7751 35.472 78.5294 35.3627 78.1335L34.8804 78.2336C34.9896 78.8844 35.4856 79.3485 36.1682 79.3485C36.8553 79.3485 37.3468 78.8844 37.456 78.2336Z" fill="#545555"/>
<path d="M45.0326 82.5112L43.2715 80.0266H42.6025V84.7501H43.2897V81.1506L45.0144 83.5442L46.7618 81.1506V84.7501H47.4762V80.0266H46.7982L45.0326 82.5112Z" fill="#545555"/>
<path d="M51.0211 79.9265C49.7151 79.9265 48.7549 81.0232 48.7549 82.3929C48.7549 83.8627 49.8152 84.8593 51.1121 84.8593C52.0086 84.8593 52.5819 84.5044 53.0597 83.972L52.6229 83.5806C52.2406 83.9811 51.781 84.2495 51.1348 84.2495C50.3021 84.2495 49.574 83.6716 49.4693 82.6796H53.2145C53.2236 82.5704 53.2236 82.4976 53.2236 82.4339C53.2236 81.0414 52.4181 79.9265 51.0211 79.9265ZM49.4648 82.1108C49.5649 81.1961 50.1883 80.5226 50.9983 80.5226C51.9312 80.5226 52.4227 81.2552 52.5046 82.1108H49.4648Z" fill="#545555"/>
<path d="M56.8322 80.0812C55.8265 80.0812 55.2031 80.5453 54.8754 81.1051C54.9482 80.1995 55.2759 79.6716 56.2542 79.4214L58.8117 78.7888L58.6752 78.1927L56.0449 78.8161C54.3976 79.2075 54.2793 80.6728 54.2793 82.1972C54.2793 83.8445 55.2395 84.8547 56.6729 84.8547C58.0699 84.8547 59.0938 83.7399 59.0938 82.4247C59.0984 81.1324 58.0654 80.0812 56.8322 80.0812ZM56.6957 84.2313C55.7446 84.2313 55.0028 83.435 55.0028 82.4475C55.0028 81.46 55.6991 80.6637 56.6775 80.6637C57.6285 80.6637 58.3703 81.46 58.3703 82.4475C58.3703 83.435 57.674 84.2313 56.6957 84.2313Z" fill="#545555"/>
<path d="M61.0369 80.4179C61.0369 83.9628 60.5636 84.2131 59.9948 84.2131C59.9129 84.2131 59.7491 84.1767 59.6581 84.1494L59.5762 84.7546C59.7218 84.791 59.9857 84.8274 60.1404 84.8274C61.0369 84.8274 61.7013 84.4452 61.7013 80.7592V80.65H63.6762V84.7546H64.3816V80.0311H61.0369V80.4179V80.4179Z" fill="#545555"/>
<path d="M66.7254 80.0266H66.02V84.7501H66.7254V80.0266Z" fill="#545555"/>
<path d="M66.7798 78.2155H65.9744V78.9936H66.7798V78.2155Z" fill="#545555"/>
<path d="M71.103 84.7501H71.8038V80.65H74.4932V84.7501H75.194V80.0266H71.103V84.7501Z" fill="#545555"/>
<path d="M79.2804 79.9265C78.4112 79.9265 77.8561 80.4088 77.4693 80.9777V80.0266H76.7639V86.2154H77.4693V83.8491C77.8333 84.377 78.4021 84.8548 79.2804 84.8548C80.4226 84.8548 81.5375 83.9401 81.5375 82.3974C81.5375 80.8229 80.4135 79.9265 79.2804 79.9265ZM79.153 84.2222C78.2747 84.2222 77.4419 83.4896 77.4419 82.3929C77.4419 81.2962 78.2747 80.5545 79.153 80.5545C80.0494 80.5545 80.8185 81.2689 80.8185 82.3838C80.8185 83.5442 80.0676 84.2222 79.153 84.2222Z" fill="#545555"/>
<path d="M85.0096 79.9265C83.5853 79.9265 82.5432 81.0596 82.5432 82.3929C82.5432 83.7444 83.5762 84.8593 84.9914 84.8593C86.4158 84.8593 87.4669 83.7262 87.4669 82.3929C87.4715 81.0414 86.4294 79.9265 85.0096 79.9265ZM85.0096 84.2313C84.0131 84.2313 83.2622 83.4077 83.2622 82.3929C83.2622 81.3781 83.9675 80.5454 84.9914 80.5454C85.988 80.5454 86.748 81.3781 86.748 82.3929C86.748 83.4077 86.0335 84.2313 85.0096 84.2313Z" fill="#545555"/>
<path d="M90.9072 84.2313C89.9197 84.2313 89.1689 83.4168 89.1689 82.3929C89.1689 81.3599 89.9015 80.5454 90.8617 80.5454C91.5033 80.5454 91.9402 80.8457 92.3133 81.2416L92.7593 80.7683C92.3224 80.3042 91.7627 79.9265 90.8662 79.9265C89.4874 79.9265 88.4453 81.0596 88.4453 82.3929C88.4453 83.7353 89.4874 84.8593 90.8662 84.8593C91.7536 84.8593 92.3179 84.4771 92.7957 83.9446L92.3315 83.5169C91.9584 83.9219 91.5124 84.2313 90.9072 84.2313Z" fill="#545555"/>
<path d="M93.4099 80.65H95.1027V84.7501H95.8172V80.65H97.5054V80.0266H93.4099V80.65Z" fill="#545555"/>
<path d="M100.523 79.9265C99.0982 79.9265 98.0562 81.0596 98.0562 82.3929C98.0562 83.7444 99.0891 84.8593 100.504 84.8593C101.929 84.8593 102.98 83.7262 102.98 82.3929C102.98 81.0414 101.938 79.9265 100.523 79.9265ZM100.523 84.2313C99.526 84.2313 98.7751 83.4077 98.7751 82.3929C98.7751 81.3781 99.4805 80.5454 100.504 80.5454C101.501 80.5454 102.261 81.3781 102.261 82.3929C102.261 83.4077 101.546 84.2313 100.523 84.2313Z" fill="#545555"/>
<path d="M105.119 78.8752V78.3565H104.295V78.8752L104.509 82.9435H104.9L105.119 78.8752Z" fill="#545555"/>
<path d="M105.128 83.7945H104.286V84.7546H105.128V83.7945Z" fill="#545555"/>
<path d="M83.4032 18.8985L64.4955 0.0818787H53.8562L4.12744 49.8471H21.1876L59.2532 11.7632L83.4077 35.7994L101.483 17.8565V49.8516H113.523V0.0818787H101.483L83.4032 18.8985Z" fill="#9B83FC"/>
<path d="M33.9975 12.9924L21.0419 0.0323486H4L25.4742 21.5111L33.9975 12.9924Z" fill="#604337"/>
<path d="M70.9027 49.8289L49.5559 28.5276L41.019 37.06L53.8016 49.8289H70.9027Z" fill="#604337"/>
<path d="M116.345 1.03753H118.374V6.38902H119.507V1.03753H121.532V0H116.345V1.03753Z" fill="#604337"/>
<path d="M127.808 0L125.86 3.02159L123.917 0H122.72V6.38902H123.826V1.82479L125.824 4.81907H125.86L127.881 1.80658V6.38902H129V0H127.808Z" fill="#604337"/>
<g filter="url(#filter0_d_166_785)">
<path d="M10.5301 65.0233L14.1159 59.781H11.4357L9.16491 63.2622L6.91237 59.781H4.15472L7.74058 65.0552L4 70.5113H6.68029L9.10576 66.8344L11.513 70.5113H14.2707L10.5301 65.0233Z" fill="#9B83FC"/>
</g>
<g filter="url(#filter1_d_166_785)">
<path d="M19.149 65.5011C17.2014 65.5011 15.8362 66.3293 15.8362 68.1223C15.8362 69.7787 17.1103 70.6661 18.6575 70.6661C19.7906 70.6661 20.5733 70.252 21.1422 69.624V70.5113H23.3947V65.7423C23.3947 64.6365 23.1171 63.7355 22.5073 63.1212C21.9249 62.5387 21.0056 62.202 19.7315 62.202C18.3345 62.202 17.4471 62.4614 16.5415 62.8618L17.124 64.6411C17.8748 64.3635 18.5028 64.1951 19.3947 64.1951C20.5597 64.1951 21.1558 64.7321 21.1558 65.6968V65.8333C20.5733 65.6377 19.9772 65.5011 19.149 65.5011ZM21.1877 67.2031V67.6172C21.1877 68.459 20.4505 69.0597 19.3629 69.0597C18.612 69.0597 18.0887 68.6911 18.0887 68.0631C18.0887 67.2941 18.703 66.8982 19.6996 66.8982C20.2684 66.8982 20.7872 67.021 21.1877 67.2031Z" fill="#9B83FC"/>
</g>
<g filter="url(#filter2_d_166_785)">
<path d="M30.8304 62.1428C29.6199 62.1428 28.8372 62.7116 28.2684 63.4761V62.2975H25.9385V72.9686H28.2684V69.4419C28.819 70.1017 29.588 70.666 30.8304 70.666C32.778 70.666 34.5709 69.1643 34.5709 66.4203C34.5709 63.6445 32.7462 62.1428 30.8304 62.1428ZM30.2342 68.6911C29.1466 68.6911 28.2411 67.7855 28.2411 66.4249C28.2411 65.0278 29.1466 64.1268 30.2342 64.1268C31.3218 64.1268 32.241 65.0324 32.241 66.393C32.241 67.7991 31.3218 68.6911 30.2342 68.6911Z" fill="#9B83FC"/>
</g>
<g filter="url(#filter3_d_166_785)">
<path d="M41.7653 65.6695L44.7823 62.2975H42.102L39.1578 65.6695V62.2975H36.8279V70.5113H39.1578V68.5363L40.2181 67.385L42.4069 70.5113H45.1691L41.7653 65.6695Z" fill="#9B83FC"/>
</g>
<g filter="url(#filter4_d_166_785)">
<path d="M49.2328 59.3214H46.78V61.392H49.2328V59.3214Z" fill="#9B83FC"/>
</g>
<g filter="url(#filter5_d_166_785)">
<path d="M49.169 62.2975H46.8391V70.5158H49.169V62.2975Z" fill="#9B83FC"/>
</g>
<g filter="url(#filter6_d_166_785)">
<path d="M57.847 66.2064C58.5524 65.9015 59.1485 65.3464 59.1485 64.3498C59.1485 63.062 58.0609 62.2975 56.4045 62.2975H51.8994V70.5158H56.3908C58.293 70.5158 59.4579 69.674 59.4579 68.277C59.4579 67.1257 58.8436 66.5113 57.847 66.2064ZM54.202 64.0131H55.8721C56.5456 64.0131 56.8231 64.3634 56.8231 64.7639C56.8231 65.2417 56.5001 65.5921 55.8402 65.5921H54.202V64.0131ZM56.0404 68.6911H54.202V67.0665H55.9813C56.7776 67.0665 57.1007 67.4214 57.1007 67.8628C57.0962 68.3498 56.7594 68.6911 56.0404 68.6911Z" fill="#9B83FC"/>
</g>
<g filter="url(#filter7_d_166_785)">
<path d="M77.7513 70.5113V59.781H75.2075L72.3861 64.3225L69.5648 59.781H67.021V70.5113H69.3327V63.5535L72.3224 68.0904H72.3861L75.4032 63.508V70.5113H77.7513Z" fill="#9B83FC"/>
</g>
<g filter="url(#filter8_d_166_785)">
<path d="M84.2814 62.1428C81.8878 62.1428 80.2178 64.0768 80.2178 66.4203C80.2178 68.9641 82.0426 70.6979 84.509 70.6979C85.997 70.6979 87.0983 70.1154 87.8673 69.1643L86.534 67.9857C85.8924 68.5818 85.3235 68.8276 84.5408 68.8276C83.4987 68.8276 82.7615 68.2769 82.534 67.2167H88.2541C88.2678 67.0028 88.286 66.7844 88.286 66.6023C88.286 64.277 87.0255 62.1428 84.2814 62.1428ZM82.5067 65.7605C82.6887 64.7002 83.3213 64.0131 84.286 64.0131C85.2689 64.0131 85.8787 64.7184 86.0198 65.7605H82.5067Z" fill="#9B83FC"/>
</g>
<g filter="url(#filter9_d_166_785)">
<path d="M95.0299 62.6024C93.3417 62.6024 92.3451 63.4443 92.0402 63.9812C92.1039 63.1985 92.5135 62.3567 94.0334 62.0518L98.5384 61.1599L98.1698 59.3214L93.7694 60.136C90.6887 60.7048 90.3201 63.3259 90.3201 65.7924C90.3201 68.9505 91.84 70.6979 94.6113 70.6979C97.1095 70.6979 98.9207 68.814 98.9207 66.5432C98.9252 64.2907 97.1186 62.6024 95.0299 62.6024ZM94.6477 68.6911C93.4964 68.6911 92.6409 67.74 92.6409 66.5751C92.6409 65.3783 93.4372 64.4272 94.6204 64.4272C95.7717 64.4272 96.6272 65.3965 96.6272 66.5751C96.6272 67.7537 95.8445 68.6911 94.6477 68.6911Z" fill="#9B83FC"/>
</g>
<g filter="url(#filter10_d_166_785)">
<path d="M100.463 68.6274C100.354 68.6274 100.063 68.5955 99.9719 68.5819L99.8171 70.4658C100.122 70.5432 100.691 70.6023 100.996 70.6023C103.048 70.6023 103.985 69.7286 103.985 64.2861H106.07V70.5113H108.4V62.293H101.797C101.797 68.1223 101.337 68.6274 100.463 68.6274Z" fill="#9B83FC"/>
</g>
<g filter="url(#filter11_d_166_785)">
<path d="M113.464 62.2975H111.135V70.5158H113.464V62.2975Z" fill="#9B83FC"/>
</g>
<g filter="url(#filter12_d_166_785)">
<path d="M113.524 59.3214H111.071V61.392H113.524V59.3214Z" fill="#9B83FC"/>
</g>
<defs>
<filter id="filter0_d_166_785" x="0" y="59.781" width="18.2708" height="18.7303" filterUnits="userSpaceOnUse" color-interpolation-filters="sRGB">
<feFlood flood-opacity="0" result="BackgroundImageFix"/>
<feColorMatrix in="SourceAlpha" type="matrix" values="0 0 0 0 0 0 0 0 0 0 0 0 0 0 0 0 0 0 127 0" result="hardAlpha"/>
<feOffset dy="4"/>
<feGaussianBlur stdDeviation="2"/>
<feComposite in2="hardAlpha" operator="out"/>
<feColorMatrix type="matrix" values="0 0 0 0 0 0 0 0 0 0 0 0 0 0 0 0 0 0 0.25 0"/>
<feBlend mode="normal" in2="BackgroundImageFix" result="effect1_dropShadow_166_785"/>
<feBlend mode="normal" in="SourceGraphic" in2="effect1_dropShadow_166_785" result="shape"/>
</filter>
<filter id="filter1_d_166_785" x="11.8362" y="62.202" width="15.5586" height="16.4641" filterUnits="userSpaceOnUse" color-interpolation-filters="sRGB">
<feFlood flood-opacity="0" result="BackgroundImageFix"/>
<feColorMatrix in="SourceAlpha" type="matrix" values="0 0 0 0 0 0 0 0 0 0 0 0 0 0 0 0 0 0 127 0" result="hardAlpha"/>
<feOffset dy="4"/>
<feGaussianBlur stdDeviation="2"/>
<feComposite in2="hardAlpha" operator="out"/>
<feColorMatrix type="matrix" values="0 0 0 0 0 0 0 0 0 0 0 0 0 0 0 0 0 0 0.25 0"/>
<feBlend mode="normal" in2="BackgroundImageFix" result="effect1_dropShadow_166_785"/>
<feBlend mode="normal" in="SourceGraphic" in2="effect1_dropShadow_166_785" result="shape"/>
</filter>
<filter id="filter2_d_166_785" x="21.9385" y="62.1428" width="16.6326" height="18.8258" filterUnits="userSpaceOnUse" color-interpolation-filters="sRGB">
<feFlood flood-opacity="0" result="BackgroundImageFix"/>
<feColorMatrix in="SourceAlpha" type="matrix" values="0 0 0 0 0 0 0 0 0 0 0 0 0 0 0 0 0 0 127 0" result="hardAlpha"/>
<feOffset dy="4"/>
<feGaussianBlur stdDeviation="2"/>
<feComposite in2="hardAlpha" operator="out"/>
<feColorMatrix type="matrix" values="0 0 0 0 0 0 0 0 0 0 0 0 0 0 0 0 0 0 0.25 0"/>
<feBlend mode="normal" in2="BackgroundImageFix" result="effect1_dropShadow_166_785"/>
<feBlend mode="normal" in="SourceGraphic" in2="effect1_dropShadow_166_785" result="shape"/>
</filter>
<filter id="filter3_d_166_785" x="32.8279" y="62.2975" width="16.3413" height="16.2138" filterUnits="userSpaceOnUse" color-interpolation-filters="sRGB">
<feFlood flood-opacity="0" result="BackgroundImageFix"/>
<feColorMatrix in="SourceAlpha" type="matrix" values="0 0 0 0 0 0 0 0 0 0 0 0 0 0 0 0 0 0 127 0" result="hardAlpha"/>
<feOffset dy="4"/>
<feGaussianBlur stdDeviation="2"/>
<feComposite in2="hardAlpha" operator="out"/>
<feColorMatrix type="matrix" values="0 0 0 0 0 0 0 0 0 0 0 0 0 0 0 0 0 0 0.25 0"/>
<feBlend mode="normal" in2="BackgroundImageFix" result="effect1_dropShadow_166_785"/>
<feBlend mode="normal" in="SourceGraphic" in2="effect1_dropShadow_166_785" result="shape"/>
</filter>
<filter id="filter4_d_166_785" x="42.78" y="59.3214" width="10.4529" height="10.0705" filterUnits="userSpaceOnUse" color-interpolation-filters="sRGB">
<feFlood flood-opacity="0" result="BackgroundImageFix"/>
<feColorMatrix in="SourceAlpha" type="matrix" values="0 0 0 0 0 0 0 0 0 0 0 0 0 0 0 0 0 0 127 0" result="hardAlpha"/>
<feOffset dy="4"/>
<feGaussianBlur stdDeviation="2"/>
<feComposite in2="hardAlpha" operator="out"/>
<feColorMatrix type="matrix" values="0 0 0 0 0 0 0 0 0 0 0 0 0 0 0 0 0 0 0.25 0"/>
<feBlend mode="normal" in2="BackgroundImageFix" result="effect1_dropShadow_166_785"/>
<feBlend mode="normal" in="SourceGraphic" in2="effect1_dropShadow_166_785" result="shape"/>
</filter>
<filter id="filter5_d_166_785" x="42.8391" y="62.2975" width="10.3298" height="16.2184" filterUnits="userSpaceOnUse" color-interpolation-filters="sRGB">
<feFlood flood-opacity="0" result="BackgroundImageFix"/>
<feColorMatrix in="SourceAlpha" type="matrix" values="0 0 0 0 0 0 0 0 0 0 0 0 0 0 0 0 0 0 127 0" result="hardAlpha"/>
<feOffset dy="4"/>
<feGaussianBlur stdDeviation="2"/>
<feComposite in2="hardAlpha" operator="out"/>
<feColorMatrix type="matrix" values="0 0 0 0 0 0 0 0 0 0 0 0 0 0 0 0 0 0 0.25 0"/>
<feBlend mode="normal" in2="BackgroundImageFix" result="effect1_dropShadow_166_785"/>
<feBlend mode="normal" in="SourceGraphic" in2="effect1_dropShadow_166_785" result="shape"/>
</filter>
<filter id="filter6_d_166_785" x="47.8994" y="62.2975" width="15.5586" height="16.2184" filterUnits="userSpaceOnUse" color-interpolation-filters="sRGB">
<feFlood flood-opacity="0" result="BackgroundImageFix"/>
<feColorMatrix in="SourceAlpha" type="matrix" values="0 0 0 0 0 0 0 0 0 0 0 0 0 0 0 0 0 0 127 0" result="hardAlpha"/>
<feOffset dy="4"/>
<feGaussianBlur stdDeviation="2"/>
<feComposite in2="hardAlpha" operator="out"/>
<feColorMatrix type="matrix" values="0 0 0 0 0 0 0 0 0 0 0 0 0 0 0 0 0 0 0.25 0"/>
<feBlend mode="normal" in2="BackgroundImageFix" result="effect1_dropShadow_166_785"/>
<feBlend mode="normal" in="SourceGraphic" in2="effect1_dropShadow_166_785" result="shape"/>
</filter>
<filter id="filter7_d_166_785" x="63.021" y="59.781" width="18.7302" height="18.7303" filterUnits="userSpaceOnUse" color-interpolation-filters="sRGB">
<feFlood flood-opacity="0" result="BackgroundImageFix"/>
<feColorMatrix in="SourceAlpha" type="matrix" values="0 0 0 0 0 0 0 0 0 0 0 0 0 0 0 0 0 0 127 0" result="hardAlpha"/>
<feOffset dy="4"/>
<feGaussianBlur stdDeviation="2"/>
<feComposite in2="hardAlpha" operator="out"/>
<feColorMatrix type="matrix" values="0 0 0 0 0 0 0 0 0 0 0 0 0 0 0 0 0 0 0.25 0"/>
<feBlend mode="normal" in2="BackgroundImageFix" result="effect1_dropShadow_166_785"/>
<feBlend mode="normal" in="SourceGraphic" in2="effect1_dropShadow_166_785" result="shape"/>
</filter>
<filter id="filter8_d_166_785" x="76.2178" y="62.1428" width="16.0681" height="16.5551" filterUnits="userSpaceOnUse" color-interpolation-filters="sRGB">
<feFlood flood-opacity="0" result="BackgroundImageFix"/>
<feColorMatrix in="SourceAlpha" type="matrix" values="0 0 0 0 0 0 0 0 0 0 0 0 0 0 0 0 0 0 127 0" result="hardAlpha"/>
<feOffset dy="4"/>
<feGaussianBlur stdDeviation="2"/>
<feComposite in2="hardAlpha" operator="out"/>
<feColorMatrix type="matrix" values="0 0 0 0 0 0 0 0 0 0 0 0 0 0 0 0 0 0 0.25 0"/>
<feBlend mode="normal" in2="BackgroundImageFix" result="effect1_dropShadow_166_785"/>
<feBlend mode="normal" in="SourceGraphic" in2="effect1_dropShadow_166_785" result="shape"/>
</filter>
<filter id="filter9_d_166_785" x="86.3201" y="59.3214" width="16.6006" height="19.3765" filterUnits="userSpaceOnUse" color-interpolation-filters="sRGB">
<feFlood flood-opacity="0" result="BackgroundImageFix"/>
<feColorMatrix in="SourceAlpha" type="matrix" values="0 0 0 0 0 0 0 0 0 0 0 0 0 0 0 0 0 0 127 0" result="hardAlpha"/>
<feOffset dy="4"/>
<feGaussianBlur stdDeviation="2"/>
<feComposite in2="hardAlpha" operator="out"/>
<feColorMatrix type="matrix" values="0 0 0 0 0 0 0 0 0 0 0 0 0 0 0 0 0 0 0.25 0"/>
<feBlend mode="normal" in2="BackgroundImageFix" result="effect1_dropShadow_166_785"/>
<feBlend mode="normal" in="SourceGraphic" in2="effect1_dropShadow_166_785" result="shape"/>
</filter>
<filter id="filter10_d_166_785" x="95.8171" y="62.293" width="16.5823" height="16.3094" filterUnits="userSpaceOnUse" color-interpolation-filters="sRGB">
<feFlood flood-opacity="0" result="BackgroundImageFix"/>
<feColorMatrix in="SourceAlpha" type="matrix" values="0 0 0 0 0 0 0 0 0 0 0 0 0 0 0 0 0 0 127 0" result="hardAlpha"/>
<feOffset dy="4"/>
<feGaussianBlur stdDeviation="2"/>
<feComposite in2="hardAlpha" operator="out"/>
<feColorMatrix type="matrix" values="0 0 0 0 0 0 0 0 0 0 0 0 0 0 0 0 0 0 0.25 0"/>
<feBlend mode="normal" in2="BackgroundImageFix" result="effect1_dropShadow_166_785"/>
<feBlend mode="normal" in="SourceGraphic" in2="effect1_dropShadow_166_785" result="shape"/>
</filter>
<filter id="filter11_d_166_785" x="107.135" y="62.2975" width="10.3298" height="16.2184" filterUnits="userSpaceOnUse" color-interpolation-filters="sRGB">
<feFlood flood-opacity="0" result="BackgroundImageFix"/>
<feColorMatrix in="SourceAlpha" type="matrix" values="0 0 0 0 0 0 0 0 0 0 0 0 0 0 0 0 0 0 127 0" result="hardAlpha"/>
<feOffset dy="4"/>
<feGaussianBlur stdDeviation="2"/>
<feComposite in2="hardAlpha" operator="out"/>
<feColorMatrix type="matrix" values="0 0 0 0 0 0 0 0 0 0 0 0 0 0 0 0 0 0 0.25 0"/>
<feBlend mode="normal" in2="BackgroundImageFix" result="effect1_dropShadow_166_785"/>
<feBlend mode="normal" in="SourceGraphic" in2="effect1_dropShadow_166_785" result="shape"/>
</filter>
<filter id="filter12_d_166_785" x="107.071" y="59.3214" width="10.4529" height="10.0705" filterUnits="userSpaceOnUse" color-interpolation-filters="sRGB">
<feFlood flood-opacity="0" result="BackgroundImageFix"/>
<feColorMatrix in="SourceAlpha" type="matrix" values="0 0 0 0 0 0 0 0 0 0 0 0 0 0 0 0 0 0 127 0" result="hardAlpha"/>
<feOffset dy="4"/>
<feGaussianBlur stdDeviation="2"/>
<feComposite in2="hardAlpha" operator="out"/>
<feColorMatrix type="matrix" values="0 0 0 0 0 0 0 0 0 0 0 0 0 0 0 0 0 0 0.25 0"/>
<feBlend mode="normal" in2="BackgroundImageFix" result="effect1_dropShadow_166_785"/>
<feBlend mode="normal" in="SourceGraphic" in2="effect1_dropShadow_166_785" result="shape"/>
</filter>
</defs>
</svg>
