<svg width="114" height="72" viewBox="0 0 114 72" fill="none" xmlns="http://www.w3.org/2000/svg">
<path d="M92.9923 71.1843H92.2515V72H92.9923V71.1843Z" fill="#545555"/>
<path d="M73.8747 16.0545L57.2359 0.0695496H47.8734L4.11206 42.3456H19.125L52.6227 9.99299L73.8787 30.412L89.7846 15.1693V42.3495H100.381V0.0695496H89.7846L73.8747 16.0545Z" fill="#9B83FC"/>
<path d="M30.3978 11.0372L18.9969 0.0274658H4L22.8973 18.2739L30.3978 11.0372Z" fill="#604337"/>
<path d="M62.8743 42.3302L44.0891 24.2345L36.5767 31.4828L47.8253 42.3302H62.8743Z" fill="#604337"/>
<path d="M102.863 0.881397H104.649V5.42754H105.646V0.881397H107.428V0H102.863V0.881397Z" fill="#604337"/>
<path d="M112.951 0L111.237 2.56687L109.527 0H108.474V5.42754H109.447V1.55018L111.205 4.09385H111.237L113.015 1.53471V5.42754H114V0H112.951Z" fill="#604337"/>
<g filter="url(#filter0_d_166_785)">
<path d="M9.74648 55.238L12.902 50.7847H10.5434L8.54512 53.742L6.56289 50.7847H4.13615L7.29171 55.2651L4 59.9002H6.35866L8.49307 56.7766L10.6115 59.9002H13.0382L9.74648 55.238Z" fill="#9B83FC"/>
</g>
<g filter="url(#filter1_d_166_785)">
<path d="M17.3311 55.6439C15.6171 55.6439 14.4158 56.3475 14.4158 57.8706C14.4158 59.2778 15.537 60.0316 16.8986 60.0316C17.8957 60.0316 18.5845 59.6798 19.085 59.1463V59.9002H21.0673V55.8488C21.0673 54.9094 20.823 54.144 20.2864 53.6221C19.7738 53.1273 18.9649 52.8412 17.8436 52.8412C16.6142 52.8412 15.8334 53.0616 15.0365 53.4018L15.549 54.9133C16.2098 54.6775 16.7624 54.5345 17.5473 54.5345C18.5725 54.5345 19.097 54.9906 19.097 55.8102V55.9261C18.5845 55.7599 18.0599 55.6439 17.3311 55.6439ZM19.1251 57.0897V57.4415C19.1251 58.1567 18.4763 58.667 17.5193 58.667C16.8585 58.667 16.398 58.3538 16.398 57.8204C16.398 57.167 16.9386 56.8307 17.8156 56.8307C18.3162 56.8307 18.7727 56.9351 19.1251 57.0897Z" fill="#9B83FC"/>
</g>
<g filter="url(#filter2_d_166_785)">
<path d="M27.6108 52.791C26.5456 52.791 25.8568 53.2742 25.3562 53.9236V52.9224H23.3059V61.9876H25.3562V58.9917C25.8408 59.5522 26.5175 60.0315 27.6108 60.0315C29.3247 60.0315 30.9025 58.7558 30.9025 56.4248C30.9025 54.0667 29.2967 52.791 27.6108 52.791ZM27.0862 58.3538C26.1291 58.3538 25.3322 57.5845 25.3322 56.4286C25.3322 55.2418 26.1291 54.4764 27.0862 54.4764C28.0432 54.4764 28.8522 55.2457 28.8522 56.4016C28.8522 57.5961 28.0432 58.3538 27.0862 58.3538Z" fill="#9B83FC"/>
</g>
<g filter="url(#filter3_d_166_785)">
<path d="M37.2333 55.787L39.8883 52.9224H37.5297L34.9387 55.787V52.9224H32.8884V59.9001H34.9387V58.2224L35.8718 57.2444L37.798 59.9001H40.2287L37.2333 55.787Z" fill="#9B83FC"/>
</g>
<g filter="url(#filter4_d_166_785)">
<path d="M43.8049 50.3942H41.6465V52.1531H43.8049V50.3942Z" fill="#9B83FC"/>
</g>
<g filter="url(#filter5_d_166_785)">
<path d="M43.7488 52.9224H41.6985V59.904H43.7488V52.9224Z" fill="#9B83FC"/>
</g>
<g filter="url(#filter6_d_166_785)">
<path d="M51.3853 56.2431C52.006 55.9841 52.5306 55.5125 52.5306 54.6659C52.5306 53.5719 51.5735 52.9224 50.1158 52.9224H46.1514V59.904H50.1038C51.7777 59.904 52.8029 59.1888 52.8029 58.002C52.8029 57.024 52.2623 56.5021 51.3853 56.2431ZM48.1777 54.3798H49.6473C50.24 54.3798 50.4842 54.6775 50.4842 55.0177C50.4842 55.4236 50.1999 55.7212 49.6193 55.7212H48.1777V54.3798ZM49.7955 58.3538H48.1777V56.9738H49.7434C50.4442 56.9738 50.7285 57.2753 50.7285 57.6503C50.7245 58.0639 50.4282 58.3538 49.7955 58.3538Z" fill="#9B83FC"/>
</g>
<g filter="url(#filter7_d_166_785)">
<path d="M68.9011 59.9002V50.7847H66.6626L64.1798 54.6427L61.697 50.7847H59.4585V59.9002H61.4928V53.9894L64.1238 57.8436H64.1798L66.8348 53.9507V59.9002H68.9011Z" fill="#9B83FC"/>
</g>
<g filter="url(#filter8_d_166_785)">
<path d="M74.6476 52.791C72.5412 52.791 71.0715 54.4339 71.0715 56.4248C71.0715 58.5857 72.6773 60.0586 74.8478 60.0586C76.1573 60.0586 77.1264 59.5638 77.8031 58.7558L76.6298 57.7546C76.0652 58.261 75.5646 58.4698 74.8758 58.4698C73.9588 58.4698 73.3101 58.002 73.1098 57.1013H78.1435C78.1555 56.9196 78.1715 56.734 78.1715 56.5794C78.1715 54.604 77.0623 52.791 74.6476 52.791ZM73.0858 55.8642C73.246 54.9635 73.8026 54.3798 74.6516 54.3798C75.5165 54.3798 76.0531 54.979 76.1773 55.8642H73.0858Z" fill="#9B83FC"/>
</g>
<g filter="url(#filter9_d_166_785)">
<path d="M84.1063 53.1814C82.6207 53.1814 81.7437 53.8966 81.4754 54.3528C81.5314 53.6879 81.8919 52.9727 83.2294 52.7137L87.1938 51.956L86.8695 50.3942L82.9971 51.0862C80.286 51.5694 79.9617 53.7961 79.9617 55.8913C79.9617 58.5742 81.2992 60.0587 83.7379 60.0587C85.9364 60.0587 87.5302 58.4582 87.5302 56.5292C87.5342 54.6156 85.9444 53.1814 84.1063 53.1814ZM83.77 58.3538C82.7568 58.3538 82.004 57.5459 82.004 56.5563C82.004 55.5396 82.7048 54.7316 83.7459 54.7316C84.7591 54.7316 85.5119 55.555 85.5119 56.5563C85.5119 57.5575 84.8231 58.3538 83.77 58.3538Z" fill="#9B83FC"/>
</g>
<g filter="url(#filter10_d_166_785)">
<path d="M88.8877 58.2997C88.7916 58.2997 88.5353 58.2726 88.4552 58.261L88.3191 59.8615C88.5874 59.9272 89.088 59.9774 89.3563 59.9774C91.1623 59.9774 91.9872 59.2352 91.9872 54.6118H93.8213V59.9001H95.8716V52.9185H90.0611C90.0611 57.8706 89.6566 58.2997 88.8877 58.2997Z" fill="#9B83FC"/>
</g>
<g filter="url(#filter11_d_166_785)">
<path d="M100.329 52.9224H98.2783V59.904H100.329V52.9224Z" fill="#9B83FC"/>
</g>
<g filter="url(#filter12_d_166_785)">
<path d="M100.381 50.3942H98.2224V52.1531H100.381V50.3942Z" fill="#9B83FC"/>
</g>
<defs>
<filter id="filter0_d_166_785" x="0" y="50.7847" width="17.0381" height="17.1155" filterUnits="userSpaceOnUse" color-interpolation-filters="sRGB">
<feFlood flood-opacity="0" result="BackgroundImageFix"/>
<feColorMatrix in="SourceAlpha" type="matrix" values="0 0 0 0 0 0 0 0 0 0 0 0 0 0 0 0 0 0 127 0" result="hardAlpha"/>
<feOffset dy="4"/>
<feGaussianBlur stdDeviation="2"/>
<feComposite in2="hardAlpha" operator="out"/>
<feColorMatrix type="matrix" values="0 0 0 0 0 0 0 0 0 0 0 0 0 0 0 0 0 0 0.25 0"/>
<feBlend mode="normal" in2="BackgroundImageFix" result="effect1_dropShadow_166_785"/>
<feBlend mode="normal" in="SourceGraphic" in2="effect1_dropShadow_166_785" result="shape"/>
</filter>
<filter id="filter1_d_166_785" x="10.4158" y="52.8412" width="14.6516" height="15.1903" filterUnits="userSpaceOnUse" color-interpolation-filters="sRGB">
<feFlood flood-opacity="0" result="BackgroundImageFix"/>
<feColorMatrix in="SourceAlpha" type="matrix" values="0 0 0 0 0 0 0 0 0 0 0 0 0 0 0 0 0 0 127 0" result="hardAlpha"/>
<feOffset dy="4"/>
<feGaussianBlur stdDeviation="2"/>
<feComposite in2="hardAlpha" operator="out"/>
<feColorMatrix type="matrix" values="0 0 0 0 0 0 0 0 0 0 0 0 0 0 0 0 0 0 0.25 0"/>
<feBlend mode="normal" in2="BackgroundImageFix" result="effect1_dropShadow_166_785"/>
<feBlend mode="normal" in="SourceGraphic" in2="effect1_dropShadow_166_785" result="shape"/>
</filter>
<filter id="filter2_d_166_785" x="19.3059" y="52.791" width="15.5967" height="17.1967" filterUnits="userSpaceOnUse" color-interpolation-filters="sRGB">
<feFlood flood-opacity="0" result="BackgroundImageFix"/>
<feColorMatrix in="SourceAlpha" type="matrix" values="0 0 0 0 0 0 0 0 0 0 0 0 0 0 0 0 0 0 127 0" result="hardAlpha"/>
<feOffset dy="4"/>
<feGaussianBlur stdDeviation="2"/>
<feComposite in2="hardAlpha" operator="out"/>
<feColorMatrix type="matrix" values="0 0 0 0 0 0 0 0 0 0 0 0 0 0 0 0 0 0 0.25 0"/>
<feBlend mode="normal" in2="BackgroundImageFix" result="effect1_dropShadow_166_785"/>
<feBlend mode="normal" in="SourceGraphic" in2="effect1_dropShadow_166_785" result="shape"/>
</filter>
<filter id="filter3_d_166_785" x="28.8884" y="52.9224" width="15.3403" height="14.9777" filterUnits="userSpaceOnUse" color-interpolation-filters="sRGB">
<feFlood flood-opacity="0" result="BackgroundImageFix"/>
<feColorMatrix in="SourceAlpha" type="matrix" values="0 0 0 0 0 0 0 0 0 0 0 0 0 0 0 0 0 0 127 0" result="hardAlpha"/>
<feOffset dy="4"/>
<feGaussianBlur stdDeviation="2"/>
<feComposite in2="hardAlpha" operator="out"/>
<feColorMatrix type="matrix" values="0 0 0 0 0 0 0 0 0 0 0 0 0 0 0 0 0 0 0.25 0"/>
<feBlend mode="normal" in2="BackgroundImageFix" result="effect1_dropShadow_166_785"/>
<feBlend mode="normal" in="SourceGraphic" in2="effect1_dropShadow_166_785" result="shape"/>
</filter>
<filter id="filter4_d_166_785" x="37.6465" y="50.3942" width="10.1584" height="9.75891" filterUnits="userSpaceOnUse" color-interpolation-filters="sRGB">
<feFlood flood-opacity="0" result="BackgroundImageFix"/>
<feColorMatrix in="SourceAlpha" type="matrix" values="0 0 0 0 0 0 0 0 0 0 0 0 0 0 0 0 0 0 127 0" result="hardAlpha"/>
<feOffset dy="4"/>
<feGaussianBlur stdDeviation="2"/>
<feComposite in2="hardAlpha" operator="out"/>
<feColorMatrix type="matrix" values="0 0 0 0 0 0 0 0 0 0 0 0 0 0 0 0 0 0 0.25 0"/>
<feBlend mode="normal" in2="BackgroundImageFix" result="effect1_dropShadow_166_785"/>
<feBlend mode="normal" in="SourceGraphic" in2="effect1_dropShadow_166_785" result="shape"/>
</filter>
<filter id="filter5_d_166_785" x="37.6985" y="52.9224" width="10.0503" height="14.9816" filterUnits="userSpaceOnUse" color-interpolation-filters="sRGB">
<feFlood flood-opacity="0" result="BackgroundImageFix"/>
<feColorMatrix in="SourceAlpha" type="matrix" values="0 0 0 0 0 0 0 0 0 0 0 0 0 0 0 0 0 0 127 0" result="hardAlpha"/>
<feOffset dy="4"/>
<feGaussianBlur stdDeviation="2"/>
<feComposite in2="hardAlpha" operator="out"/>
<feColorMatrix type="matrix" values="0 0 0 0 0 0 0 0 0 0 0 0 0 0 0 0 0 0 0.25 0"/>
<feBlend mode="normal" in2="BackgroundImageFix" result="effect1_dropShadow_166_785"/>
<feBlend mode="normal" in="SourceGraphic" in2="effect1_dropShadow_166_785" result="shape"/>
</filter>
<filter id="filter6_d_166_785" x="42.1514" y="52.9224" width="14.6516" height="14.9816" filterUnits="userSpaceOnUse" color-interpolation-filters="sRGB">
<feFlood flood-opacity="0" result="BackgroundImageFix"/>
<feColorMatrix in="SourceAlpha" type="matrix" values="0 0 0 0 0 0 0 0 0 0 0 0 0 0 0 0 0 0 127 0" result="hardAlpha"/>
<feOffset dy="4"/>
<feGaussianBlur stdDeviation="2"/>
<feComposite in2="hardAlpha" operator="out"/>
<feColorMatrix type="matrix" values="0 0 0 0 0 0 0 0 0 0 0 0 0 0 0 0 0 0 0.25 0"/>
<feBlend mode="normal" in2="BackgroundImageFix" result="effect1_dropShadow_166_785"/>
<feBlend mode="normal" in="SourceGraphic" in2="effect1_dropShadow_166_785" result="shape"/>
</filter>
<filter id="filter7_d_166_785" x="55.4585" y="50.7847" width="17.4426" height="17.1155" filterUnits="userSpaceOnUse" color-interpolation-filters="sRGB">
<feFlood flood-opacity="0" result="BackgroundImageFix"/>
<feColorMatrix in="SourceAlpha" type="matrix" values="0 0 0 0 0 0 0 0 0 0 0 0 0 0 0 0 0 0 127 0" result="hardAlpha"/>
<feOffset dy="4"/>
<feGaussianBlur stdDeviation="2"/>
<feComposite in2="hardAlpha" operator="out"/>
<feColorMatrix type="matrix" values="0 0 0 0 0 0 0 0 0 0 0 0 0 0 0 0 0 0 0.25 0"/>
<feBlend mode="normal" in2="BackgroundImageFix" result="effect1_dropShadow_166_785"/>
<feBlend mode="normal" in="SourceGraphic" in2="effect1_dropShadow_166_785" result="shape"/>
</filter>
<filter id="filter8_d_166_785" x="67.0715" y="52.791" width="15.1001" height="15.2676" filterUnits="userSpaceOnUse" color-interpolation-filters="sRGB">
<feFlood flood-opacity="0" result="BackgroundImageFix"/>
<feColorMatrix in="SourceAlpha" type="matrix" values="0 0 0 0 0 0 0 0 0 0 0 0 0 0 0 0 0 0 127 0" result="hardAlpha"/>
<feOffset dy="4"/>
<feGaussianBlur stdDeviation="2"/>
<feComposite in2="hardAlpha" operator="out"/>
<feColorMatrix type="matrix" values="0 0 0 0 0 0 0 0 0 0 0 0 0 0 0 0 0 0 0.25 0"/>
<feBlend mode="normal" in2="BackgroundImageFix" result="effect1_dropShadow_166_785"/>
<feBlend mode="normal" in="SourceGraphic" in2="effect1_dropShadow_166_785" result="shape"/>
</filter>
<filter id="filter9_d_166_785" x="75.9617" y="50.3942" width="15.5686" height="17.6644" filterUnits="userSpaceOnUse" color-interpolation-filters="sRGB">
<feFlood flood-opacity="0" result="BackgroundImageFix"/>
<feColorMatrix in="SourceAlpha" type="matrix" values="0 0 0 0 0 0 0 0 0 0 0 0 0 0 0 0 0 0 127 0" result="hardAlpha"/>
<feOffset dy="4"/>
<feGaussianBlur stdDeviation="2"/>
<feComposite in2="hardAlpha" operator="out"/>
<feColorMatrix type="matrix" values="0 0 0 0 0 0 0 0 0 0 0 0 0 0 0 0 0 0 0.25 0"/>
<feBlend mode="normal" in2="BackgroundImageFix" result="effect1_dropShadow_166_785"/>
<feBlend mode="normal" in="SourceGraphic" in2="effect1_dropShadow_166_785" result="shape"/>
</filter>
<filter id="filter10_d_166_785" x="84.3191" y="52.9185" width="15.5525" height="15.0589" filterUnits="userSpaceOnUse" color-interpolation-filters="sRGB">
<feFlood flood-opacity="0" result="BackgroundImageFix"/>
<feColorMatrix in="SourceAlpha" type="matrix" values="0 0 0 0 0 0 0 0 0 0 0 0 0 0 0 0 0 0 127 0" result="hardAlpha"/>
<feOffset dy="4"/>
<feGaussianBlur stdDeviation="2"/>
<feComposite in2="hardAlpha" operator="out"/>
<feColorMatrix type="matrix" values="0 0 0 0 0 0 0 0 0 0 0 0 0 0 0 0 0 0 0.25 0"/>
<feBlend mode="normal" in2="BackgroundImageFix" result="effect1_dropShadow_166_785"/>
<feBlend mode="normal" in="SourceGraphic" in2="effect1_dropShadow_166_785" result="shape"/>
</filter>
<filter id="filter11_d_166_785" x="94.2783" y="52.9224" width="10.0503" height="14.9816" filterUnits="userSpaceOnUse" color-interpolation-filters="sRGB">
<feFlood flood-opacity="0" result="BackgroundImageFix"/>
<feColorMatrix in="SourceAlpha" type="matrix" values="0 0 0 0 0 0 0 0 0 0 0 0 0 0 0 0 0 0 127 0" result="hardAlpha"/>
<feOffset dy="4"/>
<feGaussianBlur stdDeviation="2"/>
<feComposite in2="hardAlpha" operator="out"/>
<feColorMatrix type="matrix" values="0 0 0 0 0 0 0 0 0 0 0 0 0 0 0 0 0 0 0.25 0"/>
<feBlend mode="normal" in2="BackgroundImageFix" result="effect1_dropShadow_166_785"/>
<feBlend mode="normal" in="SourceGraphic" in2="effect1_dropShadow_166_785" result="shape"/>
</filter>
<filter id="filter12_d_166_785" x="94.2224" y="50.3942" width="10.1584" height="9.75891" filterUnits="userSpaceOnUse" color-interpolation-filters="sRGB">
<feFlood flood-opacity="0" result="BackgroundImageFix"/>
<feColorMatrix in="SourceAlpha" type="matrix" values="0 0 0 0 0 0 0 0 0 0 0 0 0 0 0 0 0 0 127 0" result="hardAlpha"/>
<feOffset dy="4"/>
<feGaussianBlur stdDeviation="2"/>
<feComposite in2="hardAlpha" operator="out"/>
<feColorMatrix type="matrix" values="0 0 0 0 0 0 0 0 0 0 0 0 0 0 0 0 0 0 0.25 0"/>
<feBlend mode="normal" in2="BackgroundImageFix" result="effect1_dropShadow_166_785"/>
<feBlend mode="normal" in="SourceGraphic" in2="effect1_dropShadow_166_785" result="shape"/>
</filter>
</defs>
</svg>
